<?xml version="1.0" encoding="UTF-8"?>
<svg width="130px" height="34px" viewBox="0 0 130 34" version="1.1" xmlns="https://www.w3.org/2000/svg" xmlns:xlink="https://www.w3.org/1999/xlink">
    <!-- Generator: sketchtool 41.2 (35397) - https://www.bohemiancoding.com/sketch -->
    <title>A1E18E84-89AC-44BA-B85F-4654BBDA9F5D</title>
    <desc>Created with sketchtool.</desc>
    <defs></defs>
    <g id="Welcome" stroke="none" stroke-width="1" fill="none" fill-rule="evenodd">
        <g id="Desktop---Dashboard-empty" transform="translate(-72.000000, -83.000000)">
            <g id="ICN-Golinks-horizontal" transform="translate(72.000000, 83.000000)">
                <g id="ICN-golinks" transform="translate(55.811518, 6.806283)">
                    <path d="M7.97985813,10.3482723 C7.97985813,9.50013849 7.74412093,8.83264989 7.27241007,8.34580645 C6.80069921,7.85943591 6.21738558,7.61589596 5.52294207,7.61589596 C4.82826212,7.61589596 4.22887012,7.85943591 3.72476609,8.34580645 C3.22018916,8.83264989 2.96790069,9.49682824 2.96790069,10.3383415 C2.96790069,11.1803276 3.21356865,11.8610573 3.70490458,12.3805303 C4.19647695,12.9002398 4.79563249,13.1598581 5.50331701,13.1598581 C6.21100152,13.1598581 6.80069921,12.9033136 7.27241007,12.3904611 C7.74412093,11.8773721 7.97985813,11.1966425 7.97985813,10.3482723 L7.97985813,10.3482723 Z M8.3926938,14.0872015 C7.4620402,15.1263841 6.30581659,15.6458571 4.92355008,15.6458571 C3.54081067,15.6458571 2.37489275,15.1758014 1.42485053,14.235217 C0.474808309,13.2948691 2.36446546e-05,12.0386286 2.36446546e-05,10.466732 C2.36446546e-05,8.89530822 0.488049316,7.60596521 1.46433711,6.59988515 C2.44038845,5.59356865 3.55736193,5.0904104 4.815494,5.0904104 C6.07338963,5.0904104 7.11517311,5.61011991 7.94084445,6.64882959 L7.94084445,5.24812025 L10.8890964,5.24812025 L10.8890964,14.5016923 C10.8890964,15.4486607 10.7250025,16.290174 10.3975241,17.0269414 C10.0698092,17.7632359 9.63096436,18.3420571 9.08075325,18.7631684 C7.99286269,19.6314001 6.7087215,20.0652795 5.22832967,20.0652795 C4.44214491,20.0652795 3.63917244,19.9371255 2.82035805,19.680581 C2.00154366,19.4242729 1.28416484,19.058963 0.668221584,18.585597 L1.80836683,16.3561425 C2.77779767,17.0926735 3.80302989,17.4610573 4.88429995,17.4610573 C5.96533356,17.4610573 6.82032427,17.1912717 7.44927208,16.6521736 C8.0782199,16.1126026 8.3926938,15.2580848 8.3926938,14.0872015 L8.3926938,14.0872015 Z" id="Fill-1" fill="#FFFFFF"></path>
                    <path d="M15.0556629,10.5754028 C15.0556629,11.4433981 15.3013309,12.1506097 15.7926668,12.6963283 C16.2840027,13.2422834 16.9129505,13.5151427 17.6795102,13.5151427 C18.4460699,13.5151427 19.0752542,13.2422834 19.5665901,12.6963283 C20.057926,12.1506097 20.303594,11.4433981 20.303594,10.5754028 C20.303594,9.70717109 20.057926,8.99688566 19.5665901,8.44454653 C19.0752542,7.89197095 18.4460699,7.61603783 17.6795102,7.61603783 C16.9129505,7.61603783 16.2840027,7.89197095 15.7926668,8.44454653 C15.3013309,8.99688566 15.0556629,9.70717109 15.0556629,10.5754028 M23.2717075,10.5754028 C23.2717075,12.1141969 22.740885,13.409924 21.6794764,14.4621111 C20.6180679,15.5145347 19.2847458,16.0403918 17.6795102,16.0403918 C16.0745111,16.0403918 14.741189,15.5145347 13.6800169,14.4621111 C12.6183719,13.409924 12.0877858,12.1141969 12.0877858,10.5754028 C12.0877858,9.03637223 12.6183719,7.73757136 13.6800169,6.67852728 C14.741189,5.61995609 16.0745111,5.09055227 17.6795102,5.09055227 C19.2847458,5.09055227 20.6180679,5.61995609 21.6794764,6.67852728 C22.740885,7.73757136 23.2717075,9.03637223 23.2717075,10.5754028" id="Fill-3" fill="#FFFFFF"></path>
                    <polygon id="Fill-5" fill="#00BEAC" points="30.4652153 0 33.2562304 0 25.0009357 18.0924168 22.2297821 18.0924168"></polygon>
                    <polygon id="Fill-7" fill="#FFFFFF" points="34.1797669 15.8825638 37.1280189 15.8825638 37.1280189 1.24297585 34.1797669 1.24297585"></polygon>
                    <path d="M38.9361257,15.8825638 L41.8843776,15.8825638 L41.8843776,5.2680054 L38.9361257,5.2680054 L38.9361257,15.8825638 Z M39.1817936,3.91647695 C38.8479311,3.58119574 38.6807634,3.17025165 38.6807634,2.68340821 C38.6807634,2.19703766 38.8479311,1.78562067 39.1817936,1.45033947 C39.516129,1.11482182 39.925418,0.947181219 40.4103699,0.947181219 C40.8950853,0.947181219 41.3048472,1.11482182 41.6387097,1.45033947 C41.9730451,1.78562067 42.1399764,2.19703766 42.1399764,2.68340821 C42.1399764,3.17025165 41.9730451,3.58119574 41.6387097,3.91647695 C41.3048472,4.25175815 40.8950853,4.41939875 40.4103699,4.41939875 C39.925418,4.41939875 39.516129,4.25175815 39.1817936,3.91647695 L39.1817936,3.91647695 Z" id="Fill-9" fill="#FFFFFF"></path>
                    <path d="M46.6408782,9.96364465 L46.6408782,15.882611 L43.6926262,15.882611 L43.6926262,5.26805269 L46.6408782,5.26805269 L46.6408782,6.4517041 C47.5320453,5.54422226 48.5343422,5.09048134 49.6482419,5.09048134 C50.7616686,5.09048134 51.695396,5.48487418 52.4491876,6.27413275 C53.2025063,7.06339132 53.5791657,8.1158149 53.5791657,9.43093059 L53.5791657,15.882611 L50.6309137,15.882611 L50.6309137,9.88467151 C50.6309137,8.25389968 50.0343591,7.43815909 48.8421956,7.43815909 C48.2527343,7.43815909 47.7382267,7.65237967 47.2993819,8.07963857 C46.8600642,8.50713393 46.6408782,9.13489951 46.6408782,9.96364465" id="Fill-10" fill="#FFFFFF"></path>
                    <polygon id="Fill-11" fill="#FFFFFF" points="58.2175376 15.8825874 55.2692856 15.8825874 55.2692856 1.24299949 58.2175376 1.24299949 58.2175376 8.76010809 61.500125 5.24816754 65.2149367 5.24816754 61.1854146 9.54936666 65.3719372 15.8825874 61.8734741 15.8825874 59.1805844 11.8180713 58.2175376 12.8243878"></polygon>
                    <path d="M73.7256882,12.5777504 C73.7256882,13.6235535 73.3421719,14.4619929 72.5758487,15.0933052 C71.809289,15.7248539 70.8365479,16.0402736 69.6569161,16.0402736 C68.8709677,16.0402736 68.0519169,15.8988786 67.2,15.6163249 C66.3483195,15.3335349 65.5817598,14.9157338 64.9005573,14.3633947 L66.1979395,12.5089444 C67.2983618,13.3639351 68.4709002,13.7911941 69.7160277,13.7911941 C70.0959973,13.7911941 70.3972302,13.7157676 70.6201993,13.5642054 C70.8429319,13.413116 70.9542983,13.2126094 70.9542983,12.9626854 C70.9542983,12.7127614 70.8001351,12.4826989 70.4922817,12.272025 C70.1844283,12.061824 69.7387266,11.8643912 69.1558858,11.6801993 C68.5728086,11.4962439 68.1271069,11.3382976 67.8192535,11.2065969 C67.5111637,11.075369 67.1609863,10.8843202 66.7677757,10.6343962 C65.9683499,10.1345482 65.5687553,9.39470698 65.5687553,8.41487249 C65.5687553,7.435038 65.9619659,6.63608512 66.7479142,6.0177774 C67.5343354,5.39970613 68.5496369,5.09043405 69.7947644,5.09043405 C71.039419,5.09043405 72.2840736,5.51154535 73.5292011,6.35329505 L72.428306,8.32620503 C71.5111299,7.69465631 70.597264,7.37900017 69.6864719,7.37900017 C68.7756798,7.37900017 68.3205202,7.62916061 68.3205202,8.12877217 C68.3205202,8.40494173 68.4645161,8.62199966 68.7529809,8.77994596 C69.0409728,8.9376558 69.5195406,9.12208411 70.1877386,9.33228509 C70.8561729,9.54295896 71.3307212,9.70397906 71.6128019,9.81581827 C71.8944097,9.92742104 72.2318189,10.1016821 72.6247931,10.3383651 C73.3584867,10.7859585 73.7256882,11.5321838 73.7256882,12.5777504" id="Fill-12" fill="#FFFFFF"></path>
                </g>
                <g id="ICN-GO" fill="#FFFFFF">
                    <path d="M21.6250065,5.13039631 C22.0324067,4.72299617 22.0324067,4.06039194 21.6104487,3.63843392 L19.2774377,1.30542297 C17.8309136,-0.141101173 15.4773892,-0.141101173 14.0308651,1.30520239 L1.08493722,14.2513508 C-0.361586921,15.697875 -0.361586921,18.0513993 1.08493722,19.4979235 L14.0308651,32.4440719 C15.4773892,33.890596 17.8309136,33.8903755 19.2774377,32.4438513 L32.2233656,19.4977029 C33.6698897,18.0513993 33.6698897,15.6980955 32.2233656,14.2515714 L27.5178609,9.54584618 L27.4384543,9.47967399 C27.0206872,9.1380049 26.4198437,9.16667951 26.0404564,9.54584618 L23.0713101,12.5149925 C22.66391,12.9223926 22.66391,13.5849968 23.0713101,13.992397 C23.4787102,14.3995765 24.141535,14.3997971 24.5487146,13.9926176 L26.7793792,11.7619529 L30.7461816,15.7287553 C31.3779055,16.3604792 31.3779055,17.3883539 30.7459611,18.0202984 L17.7998126,30.9664468 C17.1680888,31.5981707 16.140214,31.5981707 15.5084902,30.9666674 L2.56234172,18.020519 C1.93039728,17.3885745 1.93039728,16.3606998 2.56234172,15.7287553 L15.5084902,2.78282747 C16.140214,2.15088302 17.1680888,2.15088302 17.8000332,2.78282747 L20.147602,5.13039631 C20.5550022,5.53779644 21.2176064,5.53779644 21.6250065,5.13039631" id="Fill-1"></path>
                    <path d="M28.3667178,1.30533474 L15.4205694,14.2514832 C13.9740452,15.6980073 13.9740452,18.0513111 15.4203488,19.4978352 L20.8844074,24.9618938 L22.3618119,23.4842687 L16.8979739,18.0204307 C16.26625,17.3887069 16.26625,16.3608321 16.8979739,15.7288877 L29.8441223,2.78273924 C30.4758462,2.15101537 31.5037209,2.15101537 32.1354448,2.78273924 L45.0815932,15.7288877 C45.7135377,16.3608321 45.7135377,17.3887069 45.0818138,18.0204307 L32.1356654,30.9665792 C31.5037209,31.598303 30.4758462,31.598303 29.8441223,30.9665792 L26.7576306,27.8800875 L25.2802261,29.3577126 L28.3664972,32.4439837 C29.8130214,33.8905078 32.1665457,33.8905078 33.6130699,32.4439837 L46.5592183,19.4978352 C48.0057424,18.0513111 48.0055219,15.6980073 46.5589977,14.2514832 L33.6128493,1.30533474 C32.1665457,-0.141189403 29.813242,-0.141189403 28.3667178,1.30533474" id="Fill-4"></path>
                </g>
            </g>
        </g>
    </g>
</svg>